# xmcd
#
# Track frame offsets: 
#        150
#        17321
#        36122
#        73922
#        84700
#        87115
#        132318
#        143942
#        150060
#        183119
#        211715
#        261033
#
# Disc length: 3812 seconds
#
# Revision: 0
# Processed by: cddbd v1.5.2PL0 Copyright (c) Steve Scherf et al.
# Submitted via: ExactAudioCopy v1.0b3
#
DISCID=900ee20c
DTITLE=Various Artist - Svenska Skratt [CD 8)
DYEAR=2011
DGENRE=Comedy
TTITLE0=Gus Dahlström, Gösta Bernhard, Gunnar Knas Lindkvist - Hål I G
TTITLE0=atan
TTITLE1=Siv Ericks, Gösta Bernhard and Crazy-gänget - Aktuell TV-Rapport
TTITLE2=Siv Ericks, Gösta Bernhard, Carl-Gustaf Lindstedt - Klart Chic
TTITLE2=ago
TTITLE3=Gösta Bernhard - Medaljongen
TTITLE4=Anna Sundqvist and Gunnar Knas Lindkvist - Nattfjärilen
TTITLE5=Gunnar Knas Lindkvist - Svart Visa
TTITLE6=Gösta Bernhard, Carl-Gustaf Lindstedt, Gunnar Knas Lindkvist, 
TTITLE6=Gösta Krantz - Tagelskjortan På
TTITLE7=Crazy-gänget - Kom Till Casino
TTITLE8=Carl-Gustaf Lindstedt - Bilskoleläraren
TTITLE9=Carl-Gustaf Lindstedt - Det Hänger En Dam På Sjätte Våningen
TTITLE10=Carl-Gustaf Lindstedt - Pip I Luftrören
TTITLE11=Carl-Gustaf Lindstedt - Är Pappa Hemma?
EXTD=
EXTT0=
EXTT1=
EXTT2=
EXTT3=
EXTT4=
EXTT5=
EXTT6=
EXTT7=
EXTT8=
EXTT9=
EXTT10=
EXTT11=
PLAYORDER=
